<?xml version="1.0" encoding="UTF-8" standalone="no"?>
<!DOCTYPE svg PUBLIC "-//W3C//DTD SVG 1.1//EN"
 "http://www.w3.org/Graphics/SVG/1.1/DTD/svg11.dtd">
<!-- Generated by graphviz version 16.1.0 (0)
 -->
<!-- Title: ros_core Pages: 1 -->
<svg width="1968pt" height="627pt"
 viewBox="0.00 0.00 1968.00 627.00" xmlns="http://www.w3.org/2000/svg" xmlns:xlink="http://www.w3.org/1999/xlink">
<g id="graph0" class="graph" transform="scale(1 1) rotate(0) translate(4 623)">
<title>ros_core</title>
<polygon fill="white" stroke="none" points="-4,4 -4,-623 1963.5,-623 1963.5,4 -4,4"/>
<g id="clust1" class="cluster">
<title>cluster_rk</title>
<polygon fill="none" stroke="#bbbbbb" stroke-dasharray="5,2" points="8,-8 8,-611 1951.5,-611 1951.5,-8 8,-8"/>
<text xml:space="preserve" text-anchor="middle" x="979.75" y="-592.75" font-family="Sans" font-size="15.00">RK3588（運控板）</text>
</g>
<g id="clust2" class="cluster">
<title>cluster_rk_感測驅動</title>
<polygon fill="#f2f2f2" stroke="#f2f2f2" points="1450.38,-494 1450.38,-572 1558.12,-572 1558.12,-494 1450.38,-494"/>
<text xml:space="preserve" text-anchor="middle" x="1504.25" y="-556.6" font-family="Sans" font-size="12.00">感測驅動</text>
</g>
<g id="clust3" class="cluster">
<title>cluster_rk_運控HAL</title>
<polygon fill="#f2f2f2" stroke="#f2f2f2" points="16,-16 16,-486 1570.5,-486 1570.5,-16 16,-16"/>
<text xml:space="preserve" text-anchor="middle" x="793.25" y="-470.6" font-family="Sans" font-size="12.00">運控／HAL</text>
</g>
<g id="clust4" class="cluster">
<title>cluster_rk_導航</title>
<polygon fill="#f2f2f2" stroke="#f2f2f2" points="1091.75,-494 1091.75,-572 1205.5,-572 1205.5,-494 1091.75,-494"/>
<text xml:space="preserve" text-anchor="middle" x="1148.62" y="-556.6" font-family="Sans" font-size="12.00">導航</text>
</g>
<g id="clust5" class="cluster">
<title>cluster_rk_其他</title>
<polygon fill="#f2f2f2" stroke="#f2f2f2" points="1783.25,-494 1783.25,-572 1943.5,-572 1943.5,-494 1783.25,-494"/>
<text xml:space="preserve" text-anchor="middle" x="1863.38" y="-556.6" font-family="Sans" font-size="12.00">其他</text>
</g>
<!-- rk:/robot_camera -->
<g id="node1" class="node">
<title>rk:/robot_camera</title>
<path fill="#cde8d0" stroke="black" d="M1538.12,-538C1538.12,-538 1470.38,-538 1470.38,-538 1464.38,-538 1458.38,-532 1458.38,-526 1458.38,-526 1458.38,-514 1458.38,-514 1458.38,-508 1464.38,-502 1470.38,-502 1470.38,-502 1538.12,-502 1538.12,-502 1544.12,-502 1550.12,-508 1550.12,-514 1550.12,-514 1550.12,-526 1550.12,-526 1550.12,-532 1544.12,-538 1538.12,-538"/>
<text xml:space="preserve" text-anchor="middle" x="1504.25" y="-517.42" font-family="Sans" font-size="11.00">/robot_camera</text>
</g>
<!-- rk:/robot_remote -->
<g id="node10" class="node">
<title>rk:/robot_remote</title>
<path fill="#f4cccc" stroke="black" d="M1182.12,-278C1182.12,-278 1115.12,-278 1115.12,-278 1109.12,-278 1103.12,-272 1103.12,-266 1103.12,-266 1103.12,-254 1103.12,-254 1103.12,-248 1109.12,-242 1115.12,-242 1115.12,-242 1182.12,-242 1182.12,-242 1188.12,-242 1194.12,-248 1194.12,-254 1194.12,-254 1194.12,-266 1194.12,-266 1194.12,-272 1188.12,-278 1182.12,-278"/>
<text xml:space="preserve" text-anchor="middle" x="1148.62" y="-257.43" font-family="Sans" font-size="11.00">/robot_remote</text>
</g>
<!-- rk:/robot_camera&#45;&gt;rk:/robot_remote -->
<g id="edge9" class="edge">
<title>rk:/robot_camera&#45;&gt;rk:/robot_remote</title>
<path fill="none" stroke="#8a8a8a" d="M1466.96,-501.55C1446.31,-491.68 1419.7,-479.99 1395,-472.25 1336.67,-453.97 1307.28,-484.73 1260,-446 1213.9,-408.24 1241.51,-371.94 1209,-322 1200.66,-309.19 1189.47,-296.69 1179.05,-286.31"/>
<polygon fill="#8a8a8a" stroke="#8a8a8a" points="1181.65,-283.95 1172.02,-279.52 1176.79,-288.99 1181.65,-283.95"/>
<text xml:space="preserve" text-anchor="middle" x="1327.5" y="-501.4" font-family="Sans" font-size="8.00" fill="#444444">robot_camera/record_mp4_ack</text>
<text xml:space="preserve" text-anchor="middle" x="1327.5" y="-489.4" font-family="Sans" font-size="8.00" fill="#444444">robot_camera/record_mp4_status</text>
<text xml:space="preserve" text-anchor="middle" x="1327.5" y="-477.4" font-family="Sans" font-size="8.00" fill="#444444">+2 個</text>
</g>
<!-- rk:/bridge_image_topics_66 -->
<g id="node13" class="node">
<title>rk:/bridge_image_topics_66</title>
<path fill="#eeeeee" stroke="black" d="M1923.5,-538C1923.5,-538 1803.25,-538 1803.25,-538 1797.25,-538 1791.25,-532 1791.25,-526 1791.25,-526 1791.25,-514 1791.25,-514 1791.25,-508 1797.25,-502 1803.25,-502 1803.25,-502 1923.5,-502 1923.5,-502 1929.5,-502 1935.5,-508 1935.5,-514 1935.5,-514 1935.5,-526 1935.5,-526 1935.5,-532 1929.5,-538 1923.5,-538"/>
<text xml:space="preserve" text-anchor="middle" x="1863.38" y="-517.42" font-family="Sans" font-size="11.00">/bridge_image_topics_66</text>
</g>
<!-- rk:/robot_camera&#45;&gt;rk:/bridge_image_topics_66 -->
<g id="edge8" class="edge">
<title>rk:/robot_camera&#45;&gt;rk:/bridge_image_topics_66</title>
<path fill="none" stroke="#8a8a8a" d="M1550.48,-520C1608.03,-520 1708.49,-520 1779.84,-520"/>
<polygon fill="#8a8a8a" stroke="#8a8a8a" points="1779.52,-523.5 1789.52,-520 1779.52,-516.5 1779.52,-523.5"/>
<text xml:space="preserve" text-anchor="middle" x="1676.88" y="-536.4" font-family="Sans" font-size="8.00" fill="#444444">front_camera/image_compressed</text>
<text xml:space="preserve" text-anchor="middle" x="1676.88" y="-524.4" font-family="Sans" font-size="8.00" fill="#444444">rear_camera/image_compressed</text>
</g>
<!-- rk:/battery_controller -->
<g id="node2" class="node">
<title>rk:/battery_controller</title>
<path fill="#f4cccc" stroke="black" d="M840.75,-394C840.75,-394 753.5,-394 753.5,-394 747.5,-394 741.5,-388 741.5,-382 741.5,-382 741.5,-370 741.5,-370 741.5,-364 747.5,-358 753.5,-358 753.5,-358 840.75,-358 840.75,-358 846.75,-358 852.75,-364 852.75,-370 852.75,-370 852.75,-382 852.75,-382 852.75,-388 846.75,-394 840.75,-394"/>
<text xml:space="preserve" text-anchor="middle" x="797.12" y="-373.43" font-family="Sans" font-size="11.00">/battery_controller</text>
</g>
<!-- rk:/led_controller -->
<g id="node6" class="node">
<title>rk:/led_controller</title>
<path fill="#f4cccc" stroke="black" d="M1537.75,-246C1537.75,-246 1470.75,-246 1470.75,-246 1464.75,-246 1458.75,-240 1458.75,-234 1458.75,-234 1458.75,-222 1458.75,-222 1458.75,-216 1464.75,-210 1470.75,-210 1470.75,-210 1537.75,-210 1537.75,-210 1543.75,-210 1549.75,-216 1549.75,-222 1549.75,-222 1549.75,-234 1549.75,-234 1549.75,-240 1543.75,-246 1537.75,-246"/>
<text xml:space="preserve" text-anchor="middle" x="1504.25" y="-225.43" font-family="Sans" font-size="11.00">/led_controller</text>
</g>
<!-- rk:/battery_controller&#45;&gt;rk:/led_controller -->
<g id="edge1" class="edge">
<title>rk:/battery_controller&#45;&gt;rk:/led_controller</title>
<path fill="none" stroke="#8a8a8a" d="M853.01,-377.4C912.53,-378.47 1003.54,-378.66 1037.25,-371 1090.25,-358.96 1207.34,-283.44 1260,-270 1318.3,-255.13 1335.82,-270.81 1395,-260 1412.4,-256.82 1430.98,-251.91 1447.75,-246.88"/>
<polygon fill="#8a8a8a" stroke="#8a8a8a" points="1448.5,-250.31 1457.03,-244.02 1446.44,-243.62 1448.5,-250.31"/>
<text xml:space="preserve" text-anchor="middle" x="1148.62" y="-380.58" font-family="Sans" font-size="8.00" fill="#444444">battery_controller/battery1</text>
<text xml:space="preserve" text-anchor="middle" x="1148.62" y="-368.58" font-family="Sans" font-size="8.00" fill="#444444">battery_controller/battery2</text>
<text xml:space="preserve" text-anchor="middle" x="1148.62" y="-356.58" font-family="Sans" font-size="8.00" fill="#444444">+1 個</text>
</g>
<!-- rk:/battery_controller&#45;&gt;rk:/robot_remote -->
<g id="edge2" class="edge">
<title>rk:/battery_controller&#45;&gt;rk:/robot_remote</title>
<path fill="none" stroke="#8a8a8a" d="M853.21,-360.73C871.61,-355.81 892.26,-350.47 911.25,-346 966.91,-332.89 983.55,-339.64 1037.25,-320 1062.42,-310.79 1088.86,-296.6 1109.55,-284.33"/>
<polygon fill="#8a8a8a" stroke="#8a8a8a" points="1111.17,-287.44 1117.92,-279.27 1107.55,-281.45 1111.17,-287.44"/>
<text xml:space="preserve" text-anchor="middle" x="974.25" y="-362.4" font-family="Sans" font-size="8.00" fill="#444444">battery_controller/battery1</text>
<text xml:space="preserve" text-anchor="middle" x="974.25" y="-350.4" font-family="Sans" font-size="8.00" fill="#444444">battery_controller/battery2</text>
</g>
<!-- rk:/robot_roamerx -->
<g id="node12" class="node">
<title>rk:/robot_roamerx</title>
<path fill="#d9d2e9" stroke="black" d="M1185.5,-538C1185.5,-538 1111.75,-538 1111.75,-538 1105.75,-538 1099.75,-532 1099.75,-526 1099.75,-526 1099.75,-514 1099.75,-514 1099.75,-508 1105.75,-502 1111.75,-502 1111.75,-502 1185.5,-502 1185.5,-502 1191.5,-502 1197.5,-508 1197.5,-514 1197.5,-514 1197.5,-526 1197.5,-526 1197.5,-532 1191.5,-538 1185.5,-538"/>
<text xml:space="preserve" text-anchor="middle" x="1148.62" y="-517.42" font-family="Sans" font-size="11.00">/robot_roamerx</text>
</g>
<!-- rk:/battery_controller&#45;&gt;rk:/robot_roamerx -->
<g id="edge3" class="edge">
<title>rk:/battery_controller&#45;&gt;rk:/robot_roamerx</title>
<path fill="none" stroke="#8a8a8a" d="M839.1,-394.49C860.3,-403.49 886.8,-413.88 911.25,-421 965.98,-436.94 986.2,-419.64 1037.25,-445 1064.59,-458.58 1062.96,-473.91 1088.25,-491 1090.88,-492.78 1093.63,-494.51 1096.45,-496.18"/>
<polygon fill="#8a8a8a" stroke="#8a8a8a" points="1094.46,-499.08 1104.9,-500.9 1097.88,-492.97 1094.46,-499.08"/>
<text xml:space="preserve" text-anchor="middle" x="974.25" y="-461.4" font-family="Sans" font-size="8.00" fill="#444444">battery_controller/battery1</text>
<text xml:space="preserve" text-anchor="middle" x="974.25" y="-449.4" font-family="Sans" font-size="8.00" fill="#444444">battery_controller/battery2</text>
</g>
<!-- rk:/fill_light_controller -->
<g id="node3" class="node">
<title>rk:/fill_light_controller</title>
<path fill="#f4cccc" stroke="black" d="M1550.5,-343C1550.5,-343 1458,-343 1458,-343 1452,-343 1446,-337 1446,-331 1446,-331 1446,-319 1446,-319 1446,-313 1452,-307 1458,-307 1458,-307 1550.5,-307 1550.5,-307 1556.5,-307 1562.5,-313 1562.5,-319 1562.5,-319 1562.5,-331 1562.5,-331 1562.5,-337 1556.5,-343 1550.5,-343"/>
<text xml:space="preserve" text-anchor="middle" x="1504.25" y="-322.43" font-family="Sans" font-size="11.00">/fill_light_controller</text>
</g>
<!-- rk:/fill_light_controller&#45;&gt;rk:/robot_remote -->
<g id="edge4" class="edge">
<title>rk:/fill_light_controller&#45;&gt;rk:/robot_remote</title>
<path fill="none" stroke="#8a8a8a" d="M1446.36,-306.57C1429.92,-301.72 1411.86,-296.84 1395,-293.25 1330.64,-279.53 1255.51,-270.33 1205.51,-265.15"/>
<polygon fill="#8a8a8a" stroke="#8a8a8a" points="1206.11,-261.69 1195.81,-264.17 1205.4,-268.66 1206.11,-261.69"/>
<text xml:space="preserve" text-anchor="middle" x="1327.5" y="-322.4" font-family="Sans" font-size="8.00" fill="#444444">fill_light_controller/auto_work_state</text>
<text xml:space="preserve" text-anchor="middle" x="1327.5" y="-310.4" font-family="Sans" font-size="8.00" fill="#444444">fill_light_controller/back_light/state</text>
<text xml:space="preserve" text-anchor="middle" x="1327.5" y="-298.4" font-family="Sans" font-size="8.00" fill="#444444">+2 個</text>
</g>
<!-- rk:/imu_shm_publisher -->
<g id="node4" class="node">
<title>rk:/imu_shm_publisher</title>
<path fill="#f4cccc" stroke="black" d="M846,-452C846,-452 748.25,-452 748.25,-452 742.25,-452 736.25,-446 736.25,-440 736.25,-440 736.25,-428 736.25,-428 736.25,-422 742.25,-416 748.25,-416 748.25,-416 846,-416 846,-416 852,-416 858,-422 858,-428 858,-428 858,-440 858,-440 858,-446 852,-452 846,-452"/>
<text xml:space="preserve" text-anchor="middle" x="797.12" y="-431.43" font-family="Sans" font-size="11.00">/imu_shm_publisher</text>
</g>
<!-- rk:/imu_shm_publisher&#45;&gt;rk:/robot_remote -->
<g id="edge5" class="edge">
<title>rk:/imu_shm_publisher&#45;&gt;rk:/robot_remote</title>
<path fill="none" stroke="#8a8a8a" d="M858.21,-417.67C875.32,-413.13 893.99,-408.27 911.25,-404 967.03,-390.19 987.27,-403.36 1037.25,-375 1037.58,-374.81 1089.67,-320.48 1122.17,-286.57"/>
<polygon fill="#8a8a8a" stroke="#8a8a8a" points="1124.52,-289.17 1128.91,-279.53 1119.47,-284.33 1124.52,-289.17"/>
<text xml:space="preserve" text-anchor="middle" x="974.25" y="-408.4" font-family="Sans" font-size="8.00" fill="#444444">imu_shm_publisher/imu_central</text>
</g>
<!-- rk:/imu_shm_publisher&#45;&gt;rk:/robot_roamerx -->
<g id="edge6" class="edge">
<title>rk:/imu_shm_publisher&#45;&gt;rk:/robot_roamerx</title>
<path fill="none" stroke="#8a8a8a" d="M845.24,-452.41C865.36,-459.82 889.24,-468 911.25,-474 943.89,-482.89 1029.71,-498.92 1088.44,-509.51"/>
<polygon fill="#8a8a8a" stroke="#8a8a8a" points="1087.49,-512.9 1097.95,-511.22 1088.72,-506.01 1087.49,-512.9"/>
<text xml:space="preserve" text-anchor="middle" x="974.25" y="-504.31" font-family="Sans" font-size="8.00" fill="#444444">imu_shm_publisher/imu_central</text>
</g>
<!-- rk:/joint_shm_controller -->
<g id="node5" class="node">
<title>rk:/joint_shm_controller</title>
<path fill="#f4cccc" stroke="black" d="M848.25,-256C848.25,-256 746,-256 746,-256 740,-256 734,-250 734,-244 734,-244 734,-232 734,-232 734,-226 740,-220 746,-220 746,-220 848.25,-220 848.25,-220 854.25,-220 860.25,-226 860.25,-232 860.25,-232 860.25,-244 860.25,-244 860.25,-250 854.25,-256 848.25,-256"/>
<text xml:space="preserve" text-anchor="middle" x="797.12" y="-235.43" font-family="Sans" font-size="11.00">/joint_shm_controller</text>
</g>
<!-- rk:/joint_shm_controller&#45;&gt;rk:/robot_remote -->
<g id="edge7" class="edge">
<title>rk:/joint_shm_controller&#45;&gt;rk:/robot_remote</title>
<path fill="none" stroke="#8a8a8a" d="M860.61,-241.93C926.23,-246.06 1028.47,-252.5 1091.57,-256.47"/>
<polygon fill="#8a8a8a" stroke="#8a8a8a" points="1091.16,-259.95 1101.36,-257.09 1091.6,-252.97 1091.16,-259.95"/>
<text xml:space="preserve" text-anchor="middle" x="974.25" y="-257.28" font-family="Sans" font-size="8.00" fill="#444444">joint_shm_controller/joint_sensor</text>
</g>
<!-- rk:/robot_diagnostic_manager -->
<g id="node7" class="node">
<title>rk:/robot_diagnostic_manager</title>
<path fill="#f4cccc" stroke="black" d="M170.5,-295C170.5,-295 36,-295 36,-295 30,-295 24,-289 24,-283 24,-283 24,-271 24,-271 24,-265 30,-259 36,-259 36,-259 170.5,-259 170.5,-259 176.5,-259 182.5,-265 182.5,-271 182.5,-271 182.5,-283 182.5,-283 182.5,-289 176.5,-295 170.5,-295"/>
<text xml:space="preserve" text-anchor="middle" x="103.25" y="-274.43" font-family="Sans" font-size="11.00">/robot_diagnostic_manager</text>
</g>
<!-- rk:/robot_diagnostic_manager&#45;&gt;rk:/led_controller -->
<g id="edge10" class="edge">
<title>rk:/robot_diagnostic_manager&#45;&gt;rk:/led_controller</title>
<path fill="none" stroke="#8a8a8a" d="M151.78,-258.63C234.24,-226.96 409.37,-160.62 559.25,-110 636.27,-83.99 653.62,-68.14 734,-56 916.05,-28.51 966.47,-46.11 1147.62,-79"/>
<path fill="none" stroke="#8a8a8a" d="M1149.62,-79C1229.49,-93.19 1250.32,-96.15 1326.5,-124"/>
<path fill="none" stroke="#8a8a8a" d="M1328.5,-124C1381.39,-143.34 1436.21,-178.95 1470.02,-203.05"/>
<polygon fill="#8a8a8a" stroke="#8a8a8a" points="1467.6,-205.62 1477.76,-208.64 1471.7,-199.94 1467.6,-205.62"/>
<text xml:space="preserve" text-anchor="middle" x="797.12" y="-60.4" font-family="Sans" font-size="8.00" fill="#444444">robot_monitor/diagnostic_status</text>
</g>
<!-- rk:/robot_manager -->
<g id="node8" class="node">
<title>rk:/robot_manager</title>
<path fill="#f4cccc" stroke="black" d="M496.25,-295C496.25,-295 420.25,-295 420.25,-295 414.25,-295 408.25,-289 408.25,-283 408.25,-283 408.25,-271 408.25,-271 408.25,-265 414.25,-259 420.25,-259 420.25,-259 496.25,-259 496.25,-259 502.25,-259 508.25,-265 508.25,-271 508.25,-271 508.25,-283 508.25,-283 508.25,-289 502.25,-295 496.25,-295"/>
<text xml:space="preserve" text-anchor="middle" x="458.25" y="-274.43" font-family="Sans" font-size="11.00">/robot_manager</text>
</g>
<!-- rk:/robot_diagnostic_manager&#45;&gt;rk:/robot_manager -->
<g id="edge11" class="edge">
<title>rk:/robot_diagnostic_manager&#45;&gt;rk:/robot_manager</title>
<path fill="none" stroke="#8a8a8a" d="M182.59,-277C247.15,-277 337.39,-277 396.55,-277"/>
<polygon fill="#8a8a8a" stroke="#8a8a8a" points="396.44,-280.5 406.44,-277 396.44,-273.5 396.44,-280.5"/>
<text xml:space="preserve" text-anchor="middle" x="295.38" y="-281.4" font-family="Sans" font-size="8.00" fill="#444444">robot_monitor/diagnostic_status</text>
</g>
<!-- rk:/robot_diagnostic_manager&#45;&gt;rk:/robot_remote -->
<g id="edge12" class="edge">
<title>rk:/robot_diagnostic_manager&#45;&gt;rk:/robot_remote</title>
<path fill="none" stroke="#8a8a8a" d="M182.77,-288.08C199.49,-290.23 217.06,-292.33 233.5,-294 511.08,-322.21 581.88,-349.01 860.25,-330 883.08,-328.44 888.51,-325.48 911.25,-323 938.73,-320.01 946.05,-322.94 973.25,-318"/>
<text xml:space="preserve" text-anchor="middle" x="621.12" y="-340.75" font-family="Sans" font-size="8.00" fill="#444444">robot_monitor/diagnostic_status</text>
</g>
<!-- rk:/robot_manager&#45;&gt;rk:/joint_shm_controller -->
<g id="edge13" class="edge">
<title>rk:/robot_manager&#45;&gt;rk:/joint_shm_controller</title>
<path fill="none" stroke="#8a8a8a" d="M508.6,-271.29C564.88,-264.77 657.5,-254.05 722.37,-246.54"/>
<polygon fill="#8a8a8a" stroke="#8a8a8a" points="722.71,-250.02 732.24,-245.4 721.9,-243.07 722.71,-250.02"/>
<text xml:space="preserve" text-anchor="middle" x="621.12" y="-268.79" font-family="Sans" font-size="8.00" fill="#444444">robot_manager/robot_status</text>
</g>
<!-- rk:/robot_manager&#45;&gt;rk:/led_controller -->
<g id="edge14" class="edge">
<title>rk:/robot_manager&#45;&gt;rk:/led_controller</title>
<path fill="none" stroke="#8a8a8a" d="M478.19,-258.62C520.09,-219.34 625.55,-127.98 734,-93 821.53,-64.77 1056.94,-63.66 1147.62,-79"/>
<text xml:space="preserve" text-anchor="middle" x="974.25" y="-74.9" font-family="Sans" font-size="8.00" fill="#444444">robot_manager/robot_status</text>
</g>
<!-- rk:/robot_manager&#45;&gt;rk:/robot_remote -->
<g id="edge15" class="edge">
<title>rk:/robot_manager&#45;&gt;rk:/robot_remote</title>
<path fill="none" stroke="#8a8a8a" d="M508.68,-282.28C628.54,-294.9 928.17,-325.23 973.25,-318"/>
<path fill="none" stroke="#8a8a8a" d="M975.25,-318C1002.45,-313.06 1010.56,-320.22 1037.25,-313 1061.65,-306.4 1087.2,-294.5 1107.56,-283.64"/>
<polygon fill="#8a8a8a" stroke="#8a8a8a" points="1108.98,-286.85 1116.08,-278.99 1105.63,-280.71 1108.98,-286.85"/>
<text xml:space="preserve" text-anchor="middle" x="797.12" y="-318.9" font-family="Sans" font-size="8.00" fill="#444444">robot_manager/robot_status</text>
</g>
<!-- rk:/robot_monitor -->
<g id="node9" class="node">
<title>rk:/robot_monitor</title>
<path fill="#f4cccc" stroke="black" d="M832.88,-140C832.88,-140 761.38,-140 761.38,-140 755.38,-140 749.38,-134 749.38,-128 749.38,-128 749.38,-116 749.38,-116 749.38,-110 755.38,-104 761.38,-104 761.38,-104 832.88,-104 832.88,-104 838.88,-104 844.88,-110 844.88,-116 844.88,-116 844.88,-128 844.88,-128 844.88,-134 838.88,-140 832.88,-140"/>
<text xml:space="preserve" text-anchor="middle" x="797.12" y="-119.42" font-family="Sans" font-size="11.00">/robot_monitor</text>
</g>
<!-- rk:/robot_monitor&#45;&gt;rk:/led_controller -->
<g id="edge16" class="edge">
<title>rk:/robot_monitor&#45;&gt;rk:/led_controller</title>
<path fill="none" stroke="#8a8a8a" d="M845.36,-118.36C957.77,-110.3 1238.37,-93.96 1326.5,-124"/>
<text xml:space="preserve" text-anchor="middle" x="1148.62" y="-112.28" font-family="Sans" font-size="8.00" fill="#444444">robot_monitor/power_on_status</text>
</g>
<!-- rk:/robot_monitor&#45;&gt;rk:/robot_remote -->
<g id="edge17" class="edge">
<title>rk:/robot_monitor&#45;&gt;rk:/robot_remote</title>
<path fill="none" stroke="#8a8a8a" d="M845.11,-129.51C894.52,-138.5 973.76,-156.09 1037.25,-185 1066.09,-198.13 1095.61,-218.63 1116.86,-234.89"/>
<polygon fill="#8a8a8a" stroke="#8a8a8a" points="1114.49,-237.48 1124.53,-240.86 1118.79,-231.95 1114.49,-237.48"/>
<text xml:space="preserve" text-anchor="middle" x="974.25" y="-189.4" font-family="Sans" font-size="8.00" fill="#444444">robot_monitor/power_on_status</text>
</g>
<!-- rk:/robot_remote&#45;&gt;rk:/robot_camera -->
<g id="edge20" class="edge">
<title>rk:/robot_remote&#45;&gt;rk:/robot_camera</title>
<path fill="none" stroke="#8a8a8a" d="M1171.98,-278.28C1184.54,-289.65 1199.54,-305.26 1209,-322 1251.59,-397.37 1192.33,-456 1260,-510 1312.28,-551.72 1392.87,-545.68 1446.8,-534.99"/>
<polygon fill="#8a8a8a" stroke="#8a8a8a" points="1447.34,-538.45 1456.4,-532.96 1445.89,-531.6 1447.34,-538.45"/>
<text xml:space="preserve" text-anchor="middle" x="1327.5" y="-571.96" font-family="Sans" font-size="8.00" fill="#444444">robot_camera/record_mp4</text>
<text xml:space="preserve" text-anchor="middle" x="1327.5" y="-559.96" font-family="Sans" font-size="8.00" fill="#444444">robot_camera/take_photo</text>
<text xml:space="preserve" text-anchor="middle" x="1327.5" y="-547.96" font-family="Sans" font-size="8.00" fill="#444444">+1 個</text>
</g>
<!-- rk:/robot_remote&#45;&gt;rk:/fill_light_controller -->
<g id="edge18" class="edge">
<title>rk:/robot_remote&#45;&gt;rk:/fill_light_controller</title>
<path fill="none" stroke="#8a8a8a" d="M1170.19,-278.46C1191.08,-295.87 1225.24,-320.79 1260,-331 1317.15,-347.8 1385.15,-344.27 1434.7,-337.71"/>
<polygon fill="#8a8a8a" stroke="#8a8a8a" points="1435.02,-341.2 1444.43,-336.34 1434.04,-334.27 1435.02,-341.2"/>
<text xml:space="preserve" text-anchor="middle" x="1327.5" y="-372.3" font-family="Sans" font-size="8.00" fill="#444444">fill_light_controller/auto_work</text>
<text xml:space="preserve" text-anchor="middle" x="1327.5" y="-360.3" font-family="Sans" font-size="8.00" fill="#444444">fill_light_controller/back_light/cmd</text>
<text xml:space="preserve" text-anchor="middle" x="1327.5" y="-348.3" font-family="Sans" font-size="8.00" fill="#444444">+1 個</text>
</g>
<!-- rk:/robot_remote&#45;&gt;rk:/led_controller -->
<g id="edge19" class="edge">
<title>rk:/robot_remote&#45;&gt;rk:/led_controller</title>
<path fill="none" stroke="#8a8a8a" d="M1192.81,-241.54C1212.85,-233.94 1237.23,-226.04 1260,-222.25 1323.46,-211.7 1397.5,-215.74 1447.08,-220.74"/>
<polygon fill="#8a8a8a" stroke="#8a8a8a" points="1446.69,-224.22 1457,-221.79 1447.43,-217.26 1446.69,-224.22"/>
<text xml:space="preserve" text-anchor="middle" x="1327.5" y="-251.4" font-family="Sans" font-size="8.00" fill="#444444">estop_controller/sw_estop/state</text>
<text xml:space="preserve" text-anchor="middle" x="1327.5" y="-239.4" font-family="Sans" font-size="8.00" fill="#444444">robot_remote/locked_state</text>
<text xml:space="preserve" text-anchor="middle" x="1327.5" y="-227.4" font-family="Sans" font-size="8.00" fill="#444444">+1 個</text>
</g>
<!-- rk:/switch_controller -->
<g id="node11" class="node">
<title>rk:/switch_controller</title>
<path fill="#f4cccc" stroke="black" d="M839.25,-198C839.25,-198 755,-198 755,-198 749,-198 743,-192 743,-186 743,-186 743,-174 743,-174 743,-168 749,-162 755,-162 755,-162 839.25,-162 839.25,-162 845.25,-162 851.25,-168 851.25,-174 851.25,-174 851.25,-186 851.25,-186 851.25,-192 845.25,-198 839.25,-198"/>
<text xml:space="preserve" text-anchor="middle" x="797.12" y="-177.43" font-family="Sans" font-size="11.00">/switch_controller</text>
</g>
<!-- rk:/switch_controller&#45;&gt;rk:/robot_remote -->
<g id="edge24" class="edge">
<title>rk:/switch_controller&#45;&gt;rk:/robot_remote</title>
<path fill="none" stroke="#8a8a8a" d="M851.55,-189.81C900.18,-199.01 973.83,-213.62 1037.25,-229 1055.19,-233.35 1074.62,-238.62 1092.1,-243.57"/>
<polygon fill="#8a8a8a" stroke="#8a8a8a" points="1090.68,-246.8 1101.25,-246.18 1092.6,-240.07 1090.68,-246.8"/>
<text xml:space="preserve" text-anchor="middle" x="974.25" y="-233.4" font-family="Sans" font-size="8.00" fill="#444444">switch_controller/hw_estop/state</text>
</g>
<!-- rk:/robot_roamerx&#45;&gt;rk:/led_controller -->
<g id="edge21" class="edge">
<title>rk:/robot_roamerx&#45;&gt;rk:/led_controller</title>
<path fill="none" stroke="#8a8a8a" d="M1194.03,-501.52C1199.35,-498.4 1204.48,-494.89 1209,-491 1239.27,-464.94 1227.03,-439.56 1260,-417 1310.89,-382.18 1345.6,-421.9 1395,-385 1431.52,-357.72 1419.88,-333.37 1446,-296 1455.96,-281.75 1468.24,-266.87 1478.87,-254.68"/>
<polygon fill="#8a8a8a" stroke="#8a8a8a" points="1481.26,-257.27 1485.26,-247.46 1476.01,-252.63 1481.26,-257.27"/>
<text xml:space="preserve" text-anchor="middle" x="1327.5" y="-433.4" font-family="Sans" font-size="8.00" fill="#444444">robot_roamerx/alg_dtc</text>
<text xml:space="preserve" text-anchor="middle" x="1327.5" y="-421.4" font-family="Sans" font-size="8.00" fill="#444444">robot_roamerx/alg_status</text>
</g>
<!-- rk:/robot_roamerx&#45;&gt;rk:/robot_manager -->
<g id="edge22" class="edge">
<title>rk:/robot_roamerx&#45;&gt;rk:/robot_manager</title>
<path fill="none" stroke="#8a8a8a" d="M1099.32,-522.35C1051.32,-523.84 975.76,-523.93 911.25,-514 741.04,-487.79 700.93,-449.91 559.25,-352 536.24,-336.1 511.04,-317.19 491.7,-302.34"/>
<polygon fill="#8a8a8a" stroke="#8a8a8a" points="493.97,-299.67 483.91,-296.33 489.69,-305.21 493.97,-299.67"/>
<text xml:space="preserve" text-anchor="middle" x="797.12" y="-509.17" font-family="Sans" font-size="8.00" fill="#444444">robot_roamerx/is_in_nav_control</text>
</g>
<!-- rk:/robot_roamerx&#45;&gt;rk:/robot_remote -->
<g id="edge23" class="edge">
<title>rk:/robot_roamerx&#45;&gt;rk:/robot_remote</title>
<path fill="none" stroke="#8a8a8a" d="M1103.86,-501.67C1098.34,-498.51 1092.98,-494.95 1088.25,-491 889.6,-325.02 945.51,-316.24 958.69,-300 989.87,-261.56 1047.79,-254.07 1091.51,-254.66"/>
<polygon fill="#8a8a8a" stroke="#8a8a8a" points="1091.25,-258.15 1101.35,-254.95 1091.45,-251.15 1091.25,-258.15"/>
<text xml:space="preserve" text-anchor="middle" x="974.25" y="-304.4" font-family="Sans" font-size="8.00" fill="#444444">arc/charging_dock_info</text>
</g>
</g>
</svg>
